<?xml version="1.0" encoding="UTF-8"?>
<svg width="485px" height="78px" viewBox="0 0 485 78" version="1.1" xmlns="http://www.w3.org/2000/svg" xmlns:xlink="http://www.w3.org/1999/xlink">
    <!-- Generator: Sketch 52.5 (67469) - http://www.bohemiancoding.com/sketch -->
    <title>CUIDAMOS LO MÁS VALI</title>
    <desc>Created with Sketch.</desc>
    <defs>
        <path d="M3.89792188,23.7826484 C3.89792188,21.9453997 4.16907802,20.2492903 4.71139844,18.6942695 C5.25371886,17.1392487 6.05888659,15.7945356 7.12692578,14.6600898 C8.19496498,13.5256441 9.52030979,12.6430032 11.103,12.0121406 C12.6856902,11.3812781 14.5229114,11.0658516 16.6147188,11.0658516 C18.3191544,11.0658516 19.8215807,11.2346324 21.122043,11.5721992 C22.4225052,11.909766 23.6482416,12.3275678 24.7992891,12.8256172 L23.2387422,16.9428047 C22.4197277,16.599704 21.7003338,16.3340817 21.0805391,16.1459297 C20.4607443,15.9577777 19.890763,15.811132 19.3705781,15.7059883 C18.8503932,15.6008445 18.3634189,15.531672 17.9096406,15.4984688 C17.4558623,15.4652655 16.9910232,15.4486641 16.5151094,15.4486641 C14.1798112,15.4486641 12.3868604,16.1680579 11.1362031,17.6068672 C9.88554583,19.0456765 9.26022656,21.1042496 9.26022656,23.7826484 C9.26022656,26.6381315 9.88554583,28.7575764 11.1362031,30.1410469 C12.3868604,31.5245173 14.1687436,32.2162422 16.4819063,32.2162422 C17.1349043,32.2162422 17.7325546,32.1802725 18.274875,32.108332 C18.8171954,32.0363916 19.3567408,31.9340163 19.8935273,31.8012031 C20.4303139,31.66839 20.9919945,31.4940753 21.5785859,31.2782539 C22.1651774,31.0624325 22.8458347,30.7940433 23.6205781,30.4730781 L25.181125,34.4906563 C24.4506526,34.8337569 23.7450932,35.135349 23.0644258,35.3954414 C22.3837583,35.6555339 21.6809659,35.8741189 20.9560273,36.0512031 C20.2310888,36.2282873 19.4784922,36.3638654 18.6982148,36.4579414 C17.9179375,36.5520174 17.0629656,36.5990547 16.1332734,36.5990547 C13.8865174,36.5990547 11.9884244,36.2753275 10.4389375,35.6278633 C8.88945059,34.9803991 7.63327825,34.0839237 6.67038281,32.9384102 C5.70748737,31.7928966 5.00469492,30.4398828 4.56198438,28.8793281 C4.11927383,27.3187734 3.89792188,25.6198972 3.89792188,23.7826484 Z M28.4350313,25.8578438 L28.4350313,11.4974922 L33.5317109,11.4974922 L33.5317109,25.1439766 C33.5317109,26.2507529 33.5953496,27.2468367 33.7226289,28.1322578 C33.8499082,29.0176789 34.0989291,29.7647417 34.4696992,30.3734688 C34.8404693,30.9821958 35.3551126,31.4525687 36.0136445,31.7846016 C36.6721765,32.1166345 37.5492836,32.2826484 38.6449922,32.2826484 C39.7074975,32.2826484 40.5680032,32.1166345 41.2265352,31.7846016 C41.8850671,31.4525687 42.3997104,30.9877296 42.7704805,30.3900703 C43.1412506,29.7924111 43.3902715,29.0619496 43.5175508,28.1986641 C43.6448301,27.3353785 43.7084688,26.3724975 43.7084688,25.3099922 L43.7084688,11.4974922 L48.8383516,11.4974922 L48.8383516,25.4096016 C48.8383516,27.0365628 48.6972397,28.5362223 48.4150117,29.908625 C48.1327837,31.2810277 47.6126067,32.4597268 46.8544648,33.4447578 C46.096323,34.4297888 45.053202,35.2017537 43.7250703,35.7606758 C42.3969387,36.3195978 40.7035962,36.5990547 38.6449922,36.5990547 C36.5421171,36.5990547 34.8238726,36.3500337 33.490207,35.8519844 C32.1565415,35.353935 31.1161873,34.640075 30.3691133,33.7103828 C29.6220392,32.7806907 29.1129297,31.6517957 28.8417695,30.3236641 C28.5706093,28.9955324 28.4350313,27.5069405 28.4350313,25.8578438 Z M53.4867891,36.018 L53.4867891,11.4974922 L58.6664766,11.4974922 L58.6664766,36.018 L53.4867891,36.018 Z M63.4145234,36.018 L63.4145234,11.4974922 L73.5580781,11.4974922 C75.483869,11.4974922 77.1993466,11.7935504 78.7045625,12.3856758 C80.2097784,12.9778011 81.4770183,13.8051041 82.5063203,14.8676094 C83.5356223,15.9301147 84.3241887,17.2111891 84.872043,18.7108711 C85.4198973,20.2105531 85.6938203,21.8679258 85.6938203,23.6830391 C85.6938203,25.4760168 85.4503332,27.1250888 84.9633516,28.6303047 C84.47637,30.1355205 83.732074,31.4359633 82.7304414,32.5316719 C81.7288088,33.6273805 80.4643358,34.4823524 78.9369844,35.0966133 C77.409633,35.7108742 75.6166822,36.018 73.5580781,36.018 L63.4145234,36.018 Z M68.5278047,31.7015938 L73.3090547,31.7015938 C75.5558107,31.7015938 77.2851228,31.0845752 78.497043,29.8505195 C79.7089631,28.6164639 80.3149141,26.6159956 80.3149141,23.8490547 C80.3149141,21.0599782 79.7034293,19.0235403 78.4804414,17.7396797 C77.2574535,16.4558191 75.5336752,15.8138984 73.3090547,15.8138984 L68.5278047,15.8138984 L68.5278047,31.7015938 Z M87.0551484,35.4037422 L92.9653047,15.8969063 C93.18666,15.1221628 93.4633499,14.4332048 93.7953828,13.8300117 C94.1274157,13.2268186 94.5369168,12.7232429 95.0238984,12.3192695 C95.51088,11.9152962 96.1057634,11.6054034 96.8085664,11.389582 C97.5113694,11.1737606 98.3386723,11.0658516 99.2905,11.0658516 C100.220192,11.0658516 101.014292,11.1682268 101.672824,11.3729805 C102.331356,11.5777341 102.887503,11.8765592 103.341281,12.2694648 C103.79506,12.6623705 104.174125,13.143811 104.478488,13.7138008 C104.782852,14.2837906 105.045707,14.9284782 105.267063,15.6478828 L111.227023,35.4037422 L106.130344,36.5326484 L103.905734,29.0453438 L94.2602266,29.0453438 L92.0190156,36.5326484 L87.0551484,35.4037422 Z M95.4389375,24.7289375 L102.660617,24.7289375 L100.336398,16.5277656 C100.203585,16.0739873 100.034804,15.7751622 99.8300508,15.6312813 C99.6252972,15.4874003 99.3901107,15.4154609 99.1244844,15.4154609 C98.8256548,15.4154609 98.5794007,15.495701 98.3857148,15.6561836 C98.192029,15.8166662 98.0287819,16.1071906 97.8959688,16.5277656 L95.4389375,24.7289375 Z M113.966281,36.018 L113.966281,11.4974922 L118.73093,11.4974922 L125.089328,22.7865547 C125.266412,23.1075198 125.418592,23.3316387 125.545871,23.458918 C125.67315,23.5861973 125.82533,23.6498359 126.002414,23.6498359 C126.179498,23.6498359 126.331678,23.5861973 126.458957,23.458918 C126.586236,23.3316387 126.74395,23.1075198 126.932102,22.7865547 L133.207492,11.4974922 L137.806125,11.4974922 L137.806125,36.018 L132.809055,36.018 L132.809055,21.0599922 L130.219211,25.5092109 C129.488739,26.8041393 128.774878,27.6729457 128.077609,28.1156563 C127.38034,28.5583668 126.633277,28.7797188 125.836398,28.7797188 C125.017384,28.7797188 124.267554,28.5472992 123.586887,28.0824531 C122.906219,27.6176071 122.217261,26.7488006 121.519992,25.4760078 L119.029758,21.0931953 L119.029758,36.018 L113.966281,36.018 Z M141.441867,23.8158516 C141.441867,22.1888903 141.663219,20.6089907 142.10593,19.0761055 C142.54864,17.5432202 143.251433,16.1819057 144.214328,14.9921211 C145.177224,13.8023365 146.405727,12.8505231 147.899875,12.1366523 C149.394023,11.4227816 151.198042,11.0658516 153.311984,11.0658516 C155.514469,11.0658516 157.368292,11.4227816 158.873508,12.1366523 C160.378724,12.8505231 161.596159,13.8023365 162.525852,14.9921211 C163.455544,16.1819057 164.1279,17.5404533 164.542941,19.0678047 C164.957983,20.5951561 165.1655,22.1778225 165.1655,23.8158516 C165.1655,25.4428128 164.944148,27.0282462 164.501438,28.5721992 C164.058727,30.1161523 163.355935,31.4830006 162.393039,32.6727852 C161.430144,33.8625698 160.20164,34.8143831 158.707492,35.5282539 C157.213344,36.2421247 155.414859,36.5990547 153.311984,36.5990547 C151.109499,36.5990547 149.255677,36.2393578 147.750461,35.5199531 C146.245245,34.8005485 145.016742,33.8542689 144.064914,32.6810859 C143.113086,31.4525642 142.437963,30.0746483 142.039523,28.5472969 C141.641084,27.0199455 141.441867,25.4428128 141.441867,23.8158516 Z M146.804172,23.8158516 C146.804172,25.5866937 147.091929,27.147225 147.667453,28.4974922 C148.242977,29.8477594 149.144986,30.8604445 150.373508,31.5355781 C151.170387,31.9672209 152.149869,32.1830391 153.311984,32.1830391 C154.440896,32.1830391 155.412078,31.9616871 156.225559,31.5189766 C157.039039,31.076266 157.714163,30.4813826 158.250949,29.7343086 C158.787736,28.9872345 159.180635,28.1018267 159.42966,27.0780586 C159.678685,26.0542905 159.803195,24.966899 159.803195,23.8158516 C159.803195,22.6648041 159.678685,21.5829465 159.42966,20.5702461 C159.180635,19.5575457 158.787736,18.6721379 158.250949,17.9139961 C157.714163,17.1558543 157.039039,16.5609709 156.225559,16.1293281 C155.412078,15.6976853 154.440896,15.4818672 153.311984,15.4818672 C152.183072,15.4818672 151.209124,15.6976853 150.390109,16.1293281 C149.571095,16.5609709 148.893205,17.1558543 148.356418,17.9139961 C147.819631,18.6721379 147.426732,19.5547788 147.177707,20.5619453 C146.928682,21.5691118 146.804172,22.6537364 146.804172,23.8158516 Z M166.97507,34.7562813 L168.402805,30.439875 C171.324694,31.6130579 173.986452,32.2051744 176.388156,32.2162422 C178.225405,32.2162422 179.564584,31.9312515 180.405734,31.3612617 C181.246884,30.7912719 181.667453,30.019307 181.667453,29.0453438 C181.667453,28.5030233 181.542943,28.043718 181.293918,27.6674141 C181.044893,27.2911101 180.693497,26.9784505 180.239719,26.7294258 C179.78594,26.4804011 179.235327,26.2728836 178.587863,26.1068672 C177.940399,25.9408507 177.229306,25.7859044 176.454563,25.6420234 C175.436328,25.4649392 174.423643,25.2352866 173.416477,24.9530586 C172.40931,24.6708306 171.515602,24.2696302 170.735324,23.7494453 C169.955047,23.2292604 169.321427,22.5596708 168.834445,21.7406563 C168.347464,20.9216417 168.103977,19.8868214 168.103977,18.6361641 C168.103977,17.5515232 168.283825,16.5499056 168.643527,15.6312813 C169.00323,14.7126569 169.584279,13.9130229 170.386691,13.2323555 C171.189104,12.551688 172.237759,12.0204433 173.532688,11.6386055 C174.827616,11.2567676 176.393681,11.0658516 178.23093,11.0658516 C179.857891,11.0658516 181.390753,11.2346324 182.829563,11.5721992 C184.268372,11.909766 185.546679,12.3054326 186.664523,12.7592109 L185.402805,16.9096016 C184.04147,16.4336877 182.749328,16.0656901 181.52634,15.8055977 C180.303352,15.5455052 179.110818,15.4154609 177.948703,15.4154609 C176.388148,15.4154609 175.239885,15.6478805 174.503879,16.1127266 C173.767873,16.5775726 173.399875,17.2526961 173.399875,18.1381172 C173.399875,19.0899449 173.825978,19.7678352 174.678195,20.1718086 C175.530413,20.575782 176.714646,20.9161106 178.23093,21.1928047 C179.271299,21.3920244 180.311654,21.6355116 181.352023,21.9232734 C182.392393,22.2110353 183.333139,22.6260702 184.174289,23.1683906 C185.015439,23.710711 185.696096,24.4190373 186.216281,25.2933906 C186.736466,26.167744 186.996555,27.2966389 186.996555,28.6801094 C186.996555,29.8864956 186.764135,30.9738871 186.299289,31.9423164 C185.834443,32.9107457 185.153786,33.7408156 184.257297,34.4325508 C183.360808,35.124286 182.256815,35.6582976 180.945285,36.0346016 C179.633755,36.4109055 178.114727,36.5990547 176.388156,36.5990547 C175.347786,36.5990547 174.351703,36.535416 173.399875,36.4081367 C172.448047,36.2808574 171.57094,36.128678 170.768527,35.9515938 C169.966114,35.7745095 169.241187,35.5780597 168.593723,35.3622383 C167.946258,35.1464169 167.406713,34.9444332 166.97507,34.7562813 Z M197.339328,36.018 L197.339328,11.4974922 L202.402805,11.4974922 L202.402805,31.7015938 L215.235813,31.7015938 L215.235813,36.018 L197.339328,36.018 Z M216.447727,23.8158516 C216.447727,22.1888903 216.669079,20.6089907 217.111789,19.0761055 C217.5545,17.5432202 218.257292,16.1819057 219.220188,14.9921211 C220.183083,13.8023365 221.411586,12.8505231 222.905734,12.1366523 C224.399882,11.4227816 226.203901,11.0658516 228.317844,11.0658516 C230.520329,11.0658516 232.374151,11.4227816 233.879367,12.1366523 C235.384583,12.8505231 236.602019,13.8023365 237.531711,14.9921211 C238.461403,16.1819057 239.13376,17.5404533 239.548801,19.0678047 C239.963842,20.5951561 240.171359,22.1778225 240.171359,23.8158516 C240.171359,25.4428128 239.950007,27.0282462 239.507297,28.5721992 C239.064586,30.1161523 238.361794,31.4830006 237.398898,32.6727852 C236.436003,33.8625698 235.2075,34.8143831 233.713352,35.5282539 C232.219203,36.2421247 230.420719,36.5990547 228.317844,36.5990547 C226.115359,36.5990547 224.261536,36.2393578 222.75632,35.5199531 C221.251104,34.8005485 220.022601,33.8542689 219.070773,32.6810859 C218.118946,31.4525642 217.443822,30.0746483 217.045383,28.5472969 C216.646943,27.0199455 216.447727,25.4428128 216.447727,23.8158516 Z M221.810031,23.8158516 C221.810031,25.5866937 222.097789,27.147225 222.673313,28.4974922 C223.248836,29.8477594 224.150845,30.8604445 225.379367,31.5355781 C226.176246,31.9672209 227.155729,32.1830391 228.317844,32.1830391 C229.446756,32.1830391 230.417937,31.9616871 231.231418,31.5189766 C232.044899,31.076266 232.720022,30.4813826 233.256809,29.7343086 C233.793595,28.9872345 234.186495,28.1018267 234.43552,27.0780586 C234.684544,26.0542905 234.809055,24.966899 234.809055,23.8158516 C234.809055,22.6648041 234.684544,21.5829465 234.43552,20.5702461 C234.186495,19.5575457 233.793595,18.6721379 233.256809,17.9139961 C232.720022,17.1558543 232.044899,16.5609709 231.231418,16.1293281 C230.417937,15.6976853 229.446756,15.4818672 228.317844,15.4818672 C227.188932,15.4818672 226.214983,15.6976853 225.395969,16.1293281 C224.576954,16.5609709 223.899064,17.1558543 223.362277,17.9139961 C222.825491,18.6721379 222.432591,19.5547788 222.183566,20.5619453 C221.934542,21.5691118 221.810031,22.6537364 221.810031,23.8158516 Z M250.597141,36.018 L250.597141,11.4974922 L255.361789,11.4974922 L261.720188,22.7865547 C261.897272,23.1075198 262.049451,23.3316387 262.17673,23.458918 C262.30401,23.5861973 262.456189,23.6498359 262.633273,23.6498359 C262.810358,23.6498359 262.962537,23.5861973 263.089816,23.458918 C263.217096,23.3316387 263.374809,23.1075198 263.562961,22.7865547 L269.838352,11.4974922 L274.436984,11.4974922 L274.436984,36.018 L269.439914,36.018 L269.439914,21.0599922 L266.85007,25.5092109 C266.119598,26.8041393 265.405738,27.6729457 264.708469,28.1156563 C264.0112,28.5583668 263.264137,28.7797188 262.467258,28.7797188 C261.648243,28.7797188 260.898414,28.5472992 260.217746,28.0824531 C259.537079,27.6176071 258.848121,26.7488006 258.150852,25.4760078 L255.660617,21.0931953 L255.660617,36.018 L250.597141,36.018 Z M277.026828,35.4037422 L282.936984,15.8969063 C283.15834,15.1221628 283.43503,14.4332048 283.767063,13.8300117 C284.099095,13.2268186 284.508597,12.7232429 284.995578,12.3192695 C285.48256,11.9152962 286.077443,11.6054034 286.780246,11.389582 C287.483049,11.1737606 288.310352,11.0658516 289.26218,11.0658516 C290.191872,11.0658516 290.985972,11.1682268 291.644504,11.3729805 C292.303036,11.5777341 292.859183,11.8765592 293.312961,12.2694648 C293.766739,12.6623705 294.145804,13.143811 294.450168,13.7138008 C294.754531,14.2837906 295.017387,14.9284782 295.238742,15.6478828 L301.198703,35.4037422 L296.102023,36.5326484 L293.877414,29.0453438 L284.231906,29.0453438 L281.990695,36.5326484 L277.026828,35.4037422 Z M285.410617,24.7289375 L292.632297,24.7289375 L290.308078,16.5277656 C290.175265,16.0739873 290.006484,15.7751622 289.80173,15.6312813 C289.596977,15.4874003 289.36179,15.4154609 289.096164,15.4154609 C288.797334,15.4154609 288.55108,15.495701 288.357395,15.6561836 C288.163709,15.8166662 288.000462,16.1071906 287.867648,16.5277656 L285.410617,24.7289375 Z M285.54343,7.82854688 L291.088352,1.91839063 L294.292453,4.939875 L288.133273,10.0697578 L285.54343,7.82854688 Z M302.54343,34.7562813 L303.971164,30.439875 C306.893054,31.6130579 309.554811,32.2051744 311.956516,32.2162422 C313.793764,32.2162422 315.132944,31.9312515 315.974094,31.3612617 C316.815244,30.7912719 317.235813,30.019307 317.235813,29.0453438 C317.235813,28.5030233 317.111302,28.043718 316.862277,27.6674141 C316.613253,27.2911101 316.261856,26.9784505 315.808078,26.7294258 C315.3543,26.4804011 314.803687,26.2728836 314.156223,26.1068672 C313.508758,25.9408507 312.797665,25.7859044 312.022922,25.6420234 C311.004688,25.4649392 309.992002,25.2352866 308.984836,24.9530586 C307.977669,24.6708306 307.083961,24.2696302 306.303684,23.7494453 C305.523406,23.2292604 304.889786,22.5596708 304.402805,21.7406563 C303.915823,20.9216417 303.672336,19.8868214 303.672336,18.6361641 C303.672336,17.5515232 303.852184,16.5499056 304.211887,15.6312813 C304.571589,14.7126569 305.152638,13.9130229 305.955051,13.2323555 C306.757464,12.551688 307.806119,12.0204433 309.101047,11.6386055 C310.395975,11.2567676 311.96204,11.0658516 313.799289,11.0658516 C315.42625,11.0658516 316.959113,11.2346324 318.397922,11.5721992 C319.836731,11.909766 321.115039,12.3054326 322.232883,12.7592109 L320.971164,16.9096016 C319.609829,16.4336877 318.317687,16.0656901 317.094699,15.8055977 C315.871711,15.5455052 314.679178,15.4154609 313.517063,15.4154609 C311.956508,15.4154609 310.808245,15.6478805 310.072238,16.1127266 C309.336232,16.5775726 308.968234,17.2526961 308.968234,18.1381172 C308.968234,19.0899449 309.394337,19.7678352 310.246555,20.1718086 C311.098772,20.575782 312.283005,20.9161106 313.799289,21.1928047 C314.839659,21.3920244 315.880013,21.6355116 316.920383,21.9232734 C317.960753,22.2110353 318.901498,22.6260702 319.742648,23.1683906 C320.583798,23.710711 321.264456,24.4190373 321.784641,25.2933906 C322.304826,26.167744 322.564914,27.2966389 322.564914,28.6801094 C322.564914,29.8864956 322.332495,30.9738871 321.867648,31.9423164 C321.402802,32.9107457 320.722145,33.7408156 319.825656,34.4325508 C318.929167,35.124286 317.825175,35.6582976 316.513645,36.0346016 C315.202115,36.4109055 313.683087,36.5990547 311.956516,36.5990547 C310.916146,36.5990547 309.920062,36.535416 308.968234,36.4081367 C308.016407,36.2808574 307.1393,36.128678 306.336887,35.9515938 C305.534474,35.7745095 304.809546,35.5780597 304.162082,35.3622383 C303.514618,35.1464169 302.975072,34.9444332 302.54343,34.7562813 Z M330.566867,12.1781563 L335.530734,11.0990547 L341.490695,30.9877266 C341.645644,31.5079115 341.808891,31.8537739 341.980441,32.0253242 C342.151992,32.1968746 342.387178,32.2826484 342.686008,32.2826484 C342.984837,32.2826484 343.217257,32.1968746 343.383273,32.0253242 C343.54929,31.8537739 343.70977,31.5079115 343.864719,30.9877266 L349.924289,11.0990547 L354.755344,12.1781563 L348.795383,32.033625 C348.596163,32.6866231 348.330541,33.292574 347.998508,33.8514961 C347.666475,34.4104182 347.256974,34.8946256 346.769992,35.3041328 C346.283011,35.7136401 345.699195,36.0318335 345.018527,36.2587227 C344.33786,36.4856118 343.560361,36.5990547 342.686008,36.5990547 C340.826624,36.5990547 339.432106,36.1950874 338.502414,35.3871406 C337.572722,34.5791939 336.903132,33.4724341 336.493625,32.0668281 L330.566867,12.1781563 Z M353.128391,35.4037422 L359.038547,15.8969063 C359.259902,15.1221628 359.536592,14.4332048 359.868625,13.8300117 C360.200658,13.2268186 360.610159,12.7232429 361.097141,12.3192695 C361.584122,11.9152962 362.179006,11.6054034 362.881809,11.389582 C363.584612,11.1737606 364.411915,11.0658516 365.363742,11.0658516 C366.293434,11.0658516 367.087534,11.1682268 367.746066,11.3729805 C368.404598,11.5777341 368.960745,11.8765592 369.414523,12.2694648 C369.868302,12.6623705 370.247367,13.143811 370.55173,13.7138008 C370.856094,14.2837906 371.118949,14.9284782 371.340305,15.6478828 L377.300266,35.4037422 L372.203586,36.5326484 L369.978977,29.0453438 L360.333469,29.0453438 L358.092258,36.5326484 L353.128391,35.4037422 Z M361.51218,24.7289375 L368.733859,24.7289375 L366.409641,16.5277656 C366.276827,16.0739873 366.108047,15.7751622 365.903293,15.6312813 C365.698539,15.4874003 365.463353,15.4154609 365.197727,15.4154609 C364.898897,15.4154609 364.652643,15.495701 364.458957,15.6561836 C364.265271,15.8166662 364.102024,16.1071906 363.969211,16.5277656 L361.51218,24.7289375 Z M380.039523,36.018 L380.039523,11.4974922 L385.103,11.4974922 L385.103,31.7015938 L397.936008,31.7015938 L397.936008,36.018 L380.039523,36.018 Z M400.940891,36.018 L400.940891,11.4974922 L406.120578,11.4974922 L406.120578,36.018 L400.940891,36.018 Z M409.822727,23.8158516 C409.822727,22.1888903 410.044079,20.6089907 410.486789,19.0761055 C410.9295,17.5432202 411.632292,16.1819057 412.595188,14.9921211 C413.558083,13.8023365 414.786586,12.8505231 416.280734,12.1366523 C417.774882,11.4227816 419.578901,11.0658516 421.692844,11.0658516 C423.895329,11.0658516 425.749151,11.4227816 427.254367,12.1366523 C428.759583,12.8505231 429.977019,13.8023365 430.906711,14.9921211 C431.836403,16.1819057 432.50876,17.5404533 432.923801,19.0678047 C433.338842,20.5951561 433.546359,22.1778225 433.546359,23.8158516 C433.546359,25.4428128 433.325007,27.0282462 432.882297,28.5721992 C432.439586,30.1161523 431.736794,31.4830006 430.773898,32.6727852 C429.811003,33.8625698 428.5825,34.8143831 427.088352,35.5282539 C425.594203,36.2421247 423.795719,36.5990547 421.692844,36.5990547 C419.490359,36.5990547 417.636536,36.2393578 416.13132,35.5199531 C414.626104,34.8005485 413.397601,33.8542689 412.445773,32.6810859 C411.493946,31.4525642 410.818822,30.0746483 410.420383,28.5472969 C410.021943,27.0199455 409.822727,25.4428128 409.822727,23.8158516 Z M415.185031,23.8158516 C415.185031,25.5866937 415.472789,27.147225 416.048313,28.4974922 C416.623836,29.8477594 417.525845,30.8604445 418.754367,31.5355781 C419.551246,31.9672209 420.530729,32.1830391 421.692844,32.1830391 C422.821756,32.1830391 423.792937,31.9616871 424.606418,31.5189766 C425.419899,31.076266 426.095022,30.4813826 426.631809,29.7343086 C427.168595,28.9872345 427.561495,28.1018267 427.81052,27.0780586 C428.059544,26.0542905 428.184055,24.966899 428.184055,23.8158516 C428.184055,22.6648041 428.059544,21.5829465 427.81052,20.5702461 C427.561495,19.5575457 427.168595,18.6721379 426.631809,17.9139961 C426.095022,17.1558543 425.419899,16.5609709 424.606418,16.1293281 C423.792937,15.6976853 422.821756,15.4818672 421.692844,15.4818672 C420.563932,15.4818672 419.589983,15.6976853 418.770969,16.1293281 C417.951954,16.5609709 417.274064,17.1558543 416.737277,17.9139961 C416.200491,18.6721379 415.807591,19.5547788 415.558566,20.5619453 C415.309542,21.5691118 415.185031,22.6537364 415.185031,23.8158516 Z M435.35593,34.7562813 L436.783664,30.439875 C439.705554,31.6130579 442.367311,32.2051744 444.769016,32.2162422 C446.606264,32.2162422 447.945444,31.9312515 448.786594,31.3612617 C449.627744,30.7912719 450.048313,30.019307 450.048313,29.0453438 C450.048313,28.5030233 449.923802,28.043718 449.674777,27.6674141 C449.425753,27.2911101 449.074356,26.9784505 448.620578,26.7294258 C448.1668,26.4804011 447.616187,26.2728836 446.968723,26.1068672 C446.321258,25.9408507 445.610165,25.7859044 444.835422,25.6420234 C443.817188,25.4649392 442.804502,25.2352866 441.797336,24.9530586 C440.790169,24.6708306 439.896461,24.2696302 439.116184,23.7494453 C438.335906,23.2292604 437.702286,22.5596708 437.215305,21.7406563 C436.728323,20.9216417 436.484836,19.8868214 436.484836,18.6361641 C436.484836,17.5515232 436.664684,16.5499056 437.024387,15.6312813 C437.384089,14.7126569 437.965138,13.9130229 438.767551,13.2323555 C439.569964,12.551688 440.618619,12.0204433 441.913547,11.6386055 C443.208475,11.2567676 444.77454,11.0658516 446.611789,11.0658516 C448.23875,11.0658516 449.771613,11.2346324 451.210422,11.5721992 C452.649231,11.909766 453.927539,12.3054326 455.045383,12.7592109 L453.783664,16.9096016 C452.422329,16.4336877 451.130187,16.0656901 449.907199,15.8055977 C448.684211,15.5455052 447.491678,15.4154609 446.329563,15.4154609 C444.769008,15.4154609 443.620745,15.6478805 442.884738,16.1127266 C442.148732,16.5775726 441.780734,17.2526961 441.780734,18.1381172 C441.780734,19.0899449 442.206837,19.7678352 443.059055,20.1718086 C443.911272,20.575782 445.095505,20.9161106 446.611789,21.1928047 C447.652159,21.3920244 448.692513,21.6355116 449.732883,21.9232734 C450.773253,22.2110353 451.713998,22.6260702 452.555148,23.1683906 C453.396298,23.710711 454.076956,24.4190373 454.597141,25.2933906 C455.117326,26.167744 455.377414,27.2966389 455.377414,28.6801094 C455.377414,29.8864956 455.144995,30.9738871 454.680148,31.9423164 C454.215302,32.9107457 453.534645,33.7408156 452.638156,34.4325508 C451.741667,35.124286 450.637675,35.6582976 449.326145,36.0346016 C448.014615,36.4109055 446.495587,36.5990547 444.769016,36.5990547 C443.728646,36.5990547 442.732562,36.535416 441.780734,36.4081367 C440.828907,36.2808574 439.9518,36.128678 439.149387,35.9515938 C438.346974,35.7745095 437.622046,35.5780597 436.974582,35.3622383 C436.327118,35.1464169 435.787572,34.9444332 435.35593,34.7562813 Z M457.88425,23.8158516 C457.88425,22.1888903 458.105602,20.6089907 458.548313,19.0761055 C458.991023,17.5432202 459.693815,16.1819057 460.656711,14.9921211 C461.619606,13.8023365 462.84811,12.8505231 464.342258,12.1366523 C465.836406,11.4227816 467.640424,11.0658516 469.754367,11.0658516 C471.956852,11.0658516 473.810675,11.4227816 475.315891,12.1366523 C476.821106,12.8505231 478.038542,13.8023365 478.968234,14.9921211 C479.897927,16.1819057 480.570283,17.5404533 480.985324,19.0678047 C481.400365,20.5951561 481.607883,22.1778225 481.607883,23.8158516 C481.607883,25.4428128 481.386531,27.0282462 480.94382,28.5721992 C480.50111,30.1161523 479.798317,31.4830006 478.835422,32.6727852 C477.872526,33.8625698 476.644023,34.8143831 475.149875,35.5282539 C473.655727,36.2421247 471.857242,36.5990547 469.754367,36.5990547 C467.551882,36.5990547 465.69806,36.2393578 464.192844,35.5199531 C462.687628,34.8005485 461.459125,33.8542689 460.507297,32.6810859 C459.555469,31.4525642 458.880346,30.0746483 458.481906,28.5472969 C458.083467,27.0199455 457.88425,25.4428128 457.88425,23.8158516 Z M463.246555,23.8158516 C463.246555,25.5866937 463.534312,27.147225 464.109836,28.4974922 C464.68536,29.8477594 465.587369,30.8604445 466.815891,31.5355781 C467.61277,31.9672209 468.592252,32.1830391 469.754367,32.1830391 C470.883279,32.1830391 471.854461,31.9616871 472.667941,31.5189766 C473.481422,31.076266 474.156545,30.4813826 474.693332,29.7343086 C475.230119,28.9872345 475.623018,28.1018267 475.872043,27.0780586 C476.121068,26.0542905 476.245578,24.966899 476.245578,23.8158516 C476.245578,22.6648041 476.121068,21.5829465 475.872043,20.5702461 C475.623018,19.5575457 475.230119,18.6721379 474.693332,17.9139961 C474.156545,17.1558543 473.481422,16.5609709 472.667941,16.1293281 C471.854461,15.6976853 470.883279,15.4818672 469.754367,15.4818672 C468.625455,15.4818672 467.651507,15.6976853 466.832492,16.1293281 C466.013478,16.5609709 465.335587,17.1558543 464.798801,17.9139961 C464.262014,18.6721379 463.869115,19.5547788 463.62009,20.5619453 C463.371065,21.5691118 463.246555,22.6537364 463.246555,23.8158516 Z M4.94382031,71.018 L4.94382031,46.4974922 L15.087375,46.4974922 C17.0131659,46.4974922 18.7286435,46.7935504 20.2338594,47.3856758 C21.7390752,47.9778011 23.0063152,48.8051041 24.0356172,49.8676094 C25.0649192,50.9301147 25.8534855,52.2111891 26.4013398,53.7108711 C26.9491941,55.2105531 27.2231172,56.8679258 27.2231172,58.6830391 C27.2231172,60.4760168 26.97963,62.1250888 26.4926484,63.6303047 C26.0056668,65.1355205 25.2613709,66.4359633 24.2597383,67.5316719 C23.2581057,68.6273805 21.9936326,69.4823524 20.4662813,70.0966133 C18.9389299,70.7108742 17.145979,71.018 15.087375,71.018 L4.94382031,71.018 Z M10.0571016,66.7015938 L14.8383516,66.7015938 C17.0851076,66.7015938 18.8144197,66.0845752 20.0263398,64.8505195 C21.23826,63.6164639 21.8442109,61.6159956 21.8442109,58.8490547 C21.8442109,56.0599782 21.2327262,54.0235403 20.0097383,52.7396797 C18.7867504,51.4558191 17.0629721,50.8138984 14.8383516,50.8138984 L10.0571016,50.8138984 L10.0571016,66.7015938 Z M30.8422578,71.018 L30.8422578,46.4974922 L48.4565156,46.4974922 L48.4565156,50.8138984 L35.8725313,50.8138984 L35.8725313,56.0599922 L45.6010469,56.0599922 L45.6010469,60.4096016 L35.8725313,60.4096016 L35.8725313,66.7015938 L48.7387422,66.7015938 L48.7387422,71.018 L30.8422578,71.018 Z M57.2885469,50.8138984 L57.2885469,46.4974922 L77.0112031,46.4974922 L77.0112031,50.8138984 L69.6899141,50.8138984 L69.6899141,71.018 L64.5932344,71.018 L64.5932344,50.8138984 L57.2885469,50.8138984 Z M79.7504609,60.8578438 L79.7504609,46.4974922 L84.8471406,46.4974922 L84.8471406,60.1439766 C84.8471406,61.2507529 84.9107793,62.2468367 85.0380586,63.1322578 C85.1653379,64.0176789 85.4143588,64.7647417 85.7851289,65.3734688 C86.155899,65.9821958 86.6705423,66.4525687 87.3290742,66.7846016 C87.9876062,67.1166345 88.8647133,67.2826484 89.9604219,67.2826484 C91.0229272,67.2826484 91.8834329,67.1166345 92.5419648,66.7846016 C93.2004968,66.4525687 93.7151401,65.9877296 94.0859102,65.3900703 C94.4566802,64.7924111 94.7057012,64.0619496 94.8329805,63.1986641 C94.9602598,62.3353785 95.0238984,61.3724975 95.0238984,60.3099922 L95.0238984,46.4974922 L100.153781,46.4974922 L100.153781,60.4096016 C100.153781,62.0365628 100.012669,63.5362223 99.7304414,64.908625 C99.4482134,66.2810277 98.9280363,67.4597268 98.1698945,68.4447578 C97.4117527,69.4297888 96.3686316,70.2017537 95.0405,70.7606758 C93.7123684,71.3195978 92.0190259,71.5990547 89.9604219,71.5990547 C87.8575468,71.5990547 86.1393022,71.3500337 84.8056367,70.8519844 C83.4719712,70.353935 82.431617,69.640075 81.684543,68.7103828 C80.9374689,67.7806907 80.4283594,66.6517957 80.1571992,65.3236641 C79.886039,63.9955324 79.7504609,62.5069405 79.7504609,60.8578438 Z M109.185031,47.1781563 L114.148898,46.0990547 L120.108859,65.9877266 C120.263808,66.5079115 120.427055,66.8537739 120.598605,67.0253242 C120.770156,67.1968746 121.005342,67.2826484 121.304172,67.2826484 C121.603001,67.2826484 121.835421,67.1968746 122.001438,67.0253242 C122.167454,66.8537739 122.327934,66.5079115 122.482883,65.9877266 L128.542453,46.0990547 L133.373508,47.1781563 L127.413547,67.033625 C127.214327,67.6866231 126.948705,68.292574 126.616672,68.8514961 C126.284639,69.4104182 125.875138,69.8946256 125.388156,70.3041328 C124.901175,70.7136401 124.317359,71.0318335 123.636691,71.2587227 C122.956024,71.4856118 122.178525,71.5990547 121.304172,71.5990547 C119.444788,71.5990547 118.05027,71.1950874 117.120578,70.3871406 C116.190886,69.5791939 115.521296,68.4724341 115.111789,67.0668281 L109.185031,47.1781563 Z M136.112766,71.018 L136.112766,46.4974922 L141.292453,46.4974922 L141.292453,71.018 L136.112766,71.018 Z M146.0405,71.018 L146.0405,46.4974922 L156.184055,46.4974922 C158.109846,46.4974922 159.825323,46.7935504 161.330539,47.3856758 C162.835755,47.9778011 164.102995,48.8051041 165.132297,49.8676094 C166.161599,50.9301147 166.950165,52.2111891 167.49802,53.7108711 C168.045874,55.2105531 168.319797,56.8679258 168.319797,58.6830391 C168.319797,60.4760168 168.07631,62.1250888 167.589328,63.6303047 C167.102347,65.1355205 166.358051,66.4359633 165.356418,67.5316719 C164.354785,68.6273805 163.090312,69.4823524 161.562961,70.0966133 C160.03561,70.7108742 158.242659,71.018 156.184055,71.018 L146.0405,71.018 Z M151.153781,66.7015938 L155.935031,66.7015938 C158.181787,66.7015938 159.911099,66.0845752 161.12302,64.8505195 C162.33494,63.6164639 162.940891,61.6159956 162.940891,58.8490547 C162.940891,56.0599782 162.329406,54.0235403 161.106418,52.7396797 C159.88343,51.4558191 158.159652,50.8138984 155.935031,50.8138984 L151.153781,50.8138984 L151.153781,66.7015938 Z M169.681125,70.4037422 L175.591281,50.8969063 C175.812637,50.1221628 176.089326,49.4332048 176.421359,48.8300117 C176.753392,48.2268186 177.162893,47.7232429 177.649875,47.3192695 C178.136857,46.9152962 178.73174,46.6054034 179.434543,46.389582 C180.137346,46.1737606 180.964649,46.0658516 181.916477,46.0658516 C182.846169,46.0658516 183.640269,46.1682268 184.298801,46.3729805 C184.957333,46.5777341 185.51348,46.8765592 185.967258,47.2694648 C186.421036,47.6623705 186.800101,48.143811 187.104465,48.7138008 C187.408828,49.2837906 187.671684,49.9284782 187.893039,50.6478828 L193.853,70.4037422 L188.75632,71.5326484 L186.531711,64.0453438 L176.886203,64.0453438 L174.644992,71.5326484 L169.681125,70.4037422 Z M178.064914,59.7289375 L185.286594,59.7289375 L182.962375,51.5277656 C182.829562,51.0739873 182.660781,50.7751622 182.456027,50.6312813 C182.251274,50.4874003 182.016087,50.4154609 181.750461,50.4154609 C181.451631,50.4154609 181.205377,50.495701 181.011691,50.6561836 C180.818006,50.8166662 180.654758,51.1071906 180.521945,51.5277656 L178.064914,59.7289375 Z" id="path-1"></path>
        <filter x="-1.5%" y="-7.2%" width="102.9%" height="120.1%" filterUnits="objectBoundingBox" id="filter-2">
            <feOffset dx="0" dy="2" in="SourceAlpha" result="shadowOffsetOuter1"></feOffset>
            <feGaussianBlur stdDeviation="2" in="shadowOffsetOuter1" result="shadowBlurOuter1"></feGaussianBlur>
            <feColorMatrix values="0 0 0 0 0   0 0 0 0 0   0 0 0 0 0  0 0 0 0.5 0" type="matrix" in="shadowBlurOuter1"></feColorMatrix>
        </filter>
    </defs>
    <g id="Page-1" stroke="none" stroke-width="1" fill="none" fill-rule="evenodd">
        <g id="CUIDAMOS-LO-MÁS-VALI">
            <use fill="black" fill-opacity="1" filter="url(#filter-2)" xlink:href="#path-1"></use>
            <use fill="#FFFFFF" fill-rule="evenodd" xlink:href="#path-1"></use>
        </g>
    </g>
</svg>