<?xml version="1.0" encoding="UTF-8"?>
<svg width="260px" height="97px" viewBox="0 0 260 97" version="1.1" xmlns="http://www.w3.org/2000/svg" xmlns:xlink="http://www.w3.org/1999/xlink">
    <!-- Generator: Sketch 52.5 (67469) - http://www.bohemiancoding.com/sketch -->
    <title>CUIDAMOS LO MÁS VALI</title>
    <desc>Created with Sketch.</desc>
    <defs>
        <path d="M4.14257812,13.2041016 C4.14257812,11.5829997 4.38183354,10.0864326 4.86035156,8.71435547 C5.33886958,7.3422783 6.04931169,6.15576672 6.99169922,5.15478516 C7.93408674,4.15380359 9.10350864,3.37500278 10.5,2.81835938 C11.8964914,2.26171597 13.5175689,1.98339844 15.3632813,1.98339844 C16.867195,1.98339844 18.1928654,2.13232273 19.340332,2.43017578 C20.4877987,2.72802883 21.5693309,3.09667749 22.5849609,3.53613281 L21.2080078,7.16894531 C20.4853479,6.86620942 19.8505887,6.63183677 19.3037109,6.46582031 C18.7568332,6.29980386 18.2539085,6.17041062 17.7949219,6.07763672 C17.3359352,5.98486282 16.906252,5.92382827 16.5058594,5.89453125 C16.1054667,5.86523423 15.6953146,5.85058594 15.2753906,5.85058594 C13.2148334,5.85058594 11.632818,6.48534521 10.5292969,7.75488281 C9.42577573,9.02442041 8.87402344,10.8408085 8.87402344,13.2041016 C8.87402344,15.7236454 9.42577573,17.5937439 10.5292969,18.8144531 C11.632818,20.0351624 13.2050679,20.6455078 15.2460938,20.6455078 C15.8222685,20.6455078 16.349607,20.6137698 16.828125,20.550293 C17.306643,20.4868161 17.7827125,20.396485 18.2563477,20.2792969 C18.7299828,20.1621088 19.2255833,20.0083017 19.7431641,19.8178711 C20.2607448,19.6274405 20.8613247,19.3906264 21.5449219,19.1074219 L22.921875,22.6523438 C22.2773405,22.9550796 21.6547882,23.2211903 21.0541992,23.4506836 C20.4536103,23.6801769 19.8334993,23.8730461 19.1938477,24.0292969 C18.554196,24.1855477 17.8901402,24.3051754 17.2016602,24.3881836 C16.5131802,24.4711918 15.7587932,24.5126953 14.9384766,24.5126953 C12.9560448,24.5126953 11.2812568,24.2270536 9.9140625,23.6557617 C8.54686816,23.0844698 7.43848081,22.2934621 6.58886719,21.2827148 C5.73925356,20.2719676 5.11914258,19.0781319 4.72851562,17.7011719 C4.33788867,16.3242119 4.14257812,14.8252034 4.14257812,13.2041016 Z M25.7929688,15.0351562 L25.7929688,2.36425781 L30.2900391,2.36425781 L30.2900391,14.4052734 C30.2900391,15.3818408 30.3461908,16.2607383 30.4584961,17.0419922 C30.5708013,17.8232461 30.7905257,18.4824192 31.1176758,19.0195312 C31.4448259,19.5566433 31.8989229,19.9716782 32.4799805,20.2646484 C33.0610381,20.5576187 33.8349561,20.7041016 34.8017578,20.7041016 C35.7392625,20.7041016 36.4985323,20.5576187 37.0795898,20.2646484 C37.6606474,19.9716782 38.1147445,19.5615261 38.4418945,19.0341797 C38.7690446,18.5068333 38.988769,17.8623085 39.1010742,17.1005859 C39.2133795,16.3388634 39.2695312,15.4892625 39.2695312,14.5517578 L39.2695312,2.36425781 L43.7958984,2.36425781 L43.7958984,14.6396484 C43.7958984,16.0752025 43.671388,17.3984314 43.4223633,18.609375 C43.1733386,19.8203186 42.7143588,20.8603472 42.0454102,21.7294922 C41.3764615,22.5986372 40.4560605,23.2797827 39.2841797,23.7729492 C38.1122988,24.2661157 36.6181731,24.5126953 34.8017578,24.5126953 C32.9462798,24.5126953 31.4301817,24.2929709 30.253418,23.8535156 C29.0766543,23.4140603 28.1586947,22.7841838 27.4995117,21.9638672 C26.8403287,21.1435506 26.3911145,20.1474668 26.1518555,18.9755859 C25.9125965,17.8037051 25.7929688,16.4902417 25.7929688,15.0351562 Z M47.8974609,24 L47.8974609,2.36425781 L52.4677734,2.36425781 L52.4677734,24 L47.8974609,24 Z M56.6572266,24 L56.6572266,2.36425781 L65.6074219,2.36425781 C67.3066491,2.36425781 68.8203059,2.62548567 70.1484375,3.14794922 C71.4765691,3.67041277 72.594722,4.40038594 73.5029297,5.33789062 C74.4111374,6.27539531 75.1069312,7.4057551 75.590332,8.72900391 C76.0737329,10.0522527 76.3154297,11.5146404 76.3154297,13.1162109 C76.3154297,14.6982501 76.1005881,16.1533137 75.6708984,17.4814453 C75.2412088,18.809577 74.5844771,19.9570264 73.7006836,20.9238281 C72.8168901,21.8906298 71.7011786,22.6450168 70.3535156,23.1870117 C69.0058526,23.7290066 67.4238372,24 65.6074219,24 L56.6572266,24 Z M61.1689453,20.1914062 L65.3876953,20.1914062 C67.3701271,20.1914062 68.8959907,19.6469781 69.965332,18.5581055 C71.0346733,17.4692328 71.5693359,15.7041138 71.5693359,13.2626953 C71.5693359,10.8017455 71.0297906,9.00488848 69.9506836,7.87207031 C68.8715766,6.73925215 67.3505958,6.17285156 65.3876953,6.17285156 L61.1689453,6.17285156 L61.1689453,20.1914062 Z M77.5166016,23.4580078 L82.7314453,6.24609375 C82.9267588,5.56249658 83.170897,4.9545925 83.4638672,4.42236328 C83.7568374,3.89013406 84.1181619,3.44580256 84.5478516,3.08935547 C84.9775412,2.73290837 85.5024383,2.45947361 86.1225586,2.26904297 C86.7426789,2.07861233 87.4726521,1.98339844 88.3125,1.98339844 C89.1328166,1.98339844 89.8334932,2.07372957 90.4145508,2.25439453 C90.9956084,2.4350595 91.4863261,2.69872874 91.8867188,3.04541016 C92.2871114,3.39209158 92.6215807,3.81689202 92.8901367,4.31982422 C93.1586927,4.82275642 93.390624,5.39159839 93.5859375,6.02636719 L98.8447266,23.4580078 L94.3476562,24.4541016 L92.3847656,17.8476562 L83.8740234,17.8476562 L81.8964844,24.4541016 L77.5166016,23.4580078 Z M84.9140625,14.0390625 L91.2861328,14.0390625 L89.2353516,6.80273438 C89.1181635,6.40234175 88.9692392,6.13867251 88.7885742,6.01171875 C88.6079093,5.88476499 88.4003918,5.82128906 88.1660156,5.82128906 C87.9023424,5.82128906 87.6850594,5.89208914 87.5141602,6.03369141 C87.3432609,6.17529368 87.1992193,6.43163877 87.0820312,6.80273438 L84.9140625,14.0390625 Z M101.261719,24 L101.261719,2.36425781 L105.46582,2.36425781 L111.076172,12.3251953 C111.232423,12.6083999 111.366699,12.8061518 111.479004,12.918457 C111.591309,13.0307623 111.725585,13.0869141 111.881836,13.0869141 C112.038087,13.0869141 112.172363,13.0307623 112.284668,12.918457 C112.396973,12.8061518 112.536132,12.6083999 112.702148,12.3251953 L118.239258,2.36425781 L122.296875,2.36425781 L122.296875,24 L117.887695,24 L117.887695,10.8017578 L115.602539,14.7275391 C114.958005,15.8701229 114.328128,16.6367168 113.712891,17.0273438 C113.097653,17.4179707 112.43848,17.6132812 111.735352,17.6132812 C111.012692,17.6132812 110.351077,17.4082052 109.750488,16.9980469 C109.149899,16.5878886 108.541995,15.8212947 107.926758,14.6982422 L105.729492,10.8310547 L105.729492,24 L101.261719,24 Z M125.504883,13.2333984 C125.504883,11.7978444 125.700193,10.4038154 126.09082,9.05126953 C126.481447,7.69872371 127.101558,6.49756384 127.951172,5.44775391 C128.800785,4.39794397 129.884759,3.55810862 131.203125,2.92822266 C132.521491,2.29833669 134.113272,1.98339844 135.978516,1.98339844 C137.921885,1.98339844 139.557611,2.29833669 140.885742,2.92822266 C142.213874,3.55810862 143.288082,4.39794397 144.108398,5.44775391 C144.928715,6.49756384 145.521971,7.69628232 145.888184,9.04394531 C146.254396,10.3916083 146.4375,11.7880787 146.4375,13.2333984 C146.4375,14.6689525 146.242189,16.0678643 145.851562,17.4301758 C145.460936,18.7924873 144.840825,19.9985299 143.991211,21.0483398 C143.141597,22.0981498 142.057624,22.9379851 140.739258,23.5678711 C139.420892,24.1977571 137.833994,24.5126953 135.978516,24.5126953 C134.035147,24.5126953 132.399421,24.1953157 131.071289,23.5605469 C129.743157,22.9257781 128.659184,22.0908255 127.819336,21.0556641 C126.979488,19.9716743 126.383791,18.7558661 126.032227,17.4082031 C125.680662,16.0605401 125.504883,14.6689525 125.504883,13.2333984 Z M130.236328,13.2333984 C130.236328,14.7959063 130.490232,16.1728456 130.998047,17.3642578 C131.505862,18.55567 132.301752,19.4492158 133.385742,20.0449219 C134.088871,20.4257832 134.95312,20.6162109 135.978516,20.6162109 C136.974614,20.6162109 137.831539,20.4209004 138.549316,20.0302734 C139.267093,19.6396465 139.862791,19.1147494 140.336426,18.4555664 C140.810061,17.7963834 141.156737,17.0151412 141.376465,16.1118164 C141.596193,15.2084916 141.706055,14.2490285 141.706055,13.2333984 C141.706055,12.2177684 141.596193,11.2631881 141.376465,10.3696289 C141.156737,9.47606975 140.810061,8.69482756 140.336426,8.02587891 C139.862791,7.35693025 139.267093,6.83203315 138.549316,6.45117188 C137.831539,6.0703106 136.974614,5.87988281 135.978516,5.87988281 C134.982417,5.87988281 134.12305,6.0703106 133.400391,6.45117188 C132.677731,6.83203315 132.079592,7.35693025 131.605957,8.02587891 C131.132322,8.69482756 130.785646,9.47362837 130.565918,10.3623047 C130.34619,11.250981 130.236328,12.2080027 130.236328,13.2333984 Z M148.03418,22.8867188 L149.293945,19.078125 C151.872083,20.1132864 154.220693,20.6357421 156.339844,20.6455078 C157.960946,20.6455078 159.142574,20.3940455 159.884766,19.8911133 C160.626957,19.3881811 160.998047,18.7070355 160.998047,17.8476562 C160.998047,17.3691382 160.888185,16.9638688 160.668457,16.6318359 C160.448729,16.299803 160.138674,16.0239269 159.738281,15.8041992 C159.337889,15.5844716 158.852054,15.4013679 158.280762,15.2548828 C157.70947,15.1083977 157.082035,14.9716803 156.398438,14.8447266 C155.499996,14.6884758 154.60645,14.4858411 153.717773,14.2368164 C152.829097,13.9877917 152.040531,13.6337914 151.352051,13.1748047 C150.663571,12.715818 150.104494,12.1250036 149.674805,11.4023438 C149.245115,10.6796839 149.030273,9.76660708 149.030273,8.66308594 C149.030273,7.7060499 149.188963,6.82226968 149.506348,6.01171875 C149.823732,5.20116782 150.336422,4.49560847 151.044434,3.89501953 C151.752445,3.29443059 152.677729,2.82568528 153.820312,2.48876953 C154.962896,2.15185378 156.344718,1.98339844 157.96582,1.98339844 C159.401374,1.98339844 160.7539,2.13232273 162.023438,2.43017578 C163.292975,2.72802883 164.420894,3.07714644 165.407227,3.47753906 L164.293945,7.13964844 C163.092767,6.71972446 161.952642,6.39502068 160.873535,6.16552734 C159.794428,5.93603401 158.742193,5.82128906 157.716797,5.82128906 C156.339837,5.82128906 155.326663,6.02636514 154.677246,6.43652344 C154.027829,6.84668174 153.703125,7.44237891 153.703125,8.22363281 C153.703125,9.06348076 154.079098,9.66161931 154.831055,10.0180664 C155.583012,10.3745135 156.627923,10.6748035 157.96582,10.9189453 C158.883794,11.0947274 159.801753,11.309569 160.719727,11.5634766 C161.6377,11.8173841 162.46777,12.1835914 163.209961,12.6621094 C163.952152,13.1406274 164.552732,13.7656211 165.011719,14.5371094 C165.470705,15.3085976 165.700195,16.3046814 165.700195,17.5253906 C165.700195,18.5898491 165.495119,19.5493121 165.084961,20.4038086 C164.674803,21.2583051 164.074223,21.9907196 163.283203,22.6010742 C162.492184,23.2114288 161.518072,23.6826155 160.36084,24.0146484 C159.203607,24.3466813 157.863289,24.5126953 156.339844,24.5126953 C155.42187,24.5126953 154.542973,24.4565435 153.703125,24.3442383 C152.863277,24.231933 152.089359,24.097657 151.381348,23.9414062 C150.673336,23.7851555 150.033694,23.6118174 149.462402,23.4213867 C148.89111,23.2309561 148.415041,23.0527352 148.03418,22.8867188 Z M5.06542969,57 L5.06542969,35.3642578 L9.53320312,35.3642578 L9.53320312,53.1914062 L20.8564453,53.1914062 L20.8564453,57 L5.06542969,57 Z M21.9257812,46.2333984 C21.9257812,44.7978444 22.1210918,43.4038154 22.5117188,42.0512695 C22.9023457,40.6987237 23.5224567,39.4975638 24.3720703,38.4477539 C25.2216839,37.397944 26.3056575,36.5581086 27.6240234,35.9282227 C28.9423894,35.2983367 30.5341704,34.9833984 32.3994141,34.9833984 C34.3427832,34.9833984 35.978509,35.2983367 37.3066406,35.9282227 C38.6347723,36.5581086 39.7089803,37.397944 40.5292969,38.4477539 C41.3496135,39.4975638 41.9428693,40.6962823 42.309082,42.0439453 C42.6752948,43.3916083 42.8583984,44.7880787 42.8583984,46.2333984 C42.8583984,47.6689525 42.6630879,49.0678643 42.2724609,50.4301758 C41.881834,51.7924873 41.261723,52.9985299 40.4121094,54.0483398 C39.5624958,55.0981498 38.4785222,55.9379851 37.1601562,56.5678711 C35.8417903,57.1977571 34.2548921,57.5126953 32.3994141,57.5126953 C30.456045,57.5126953 28.8203191,57.1953157 27.4921875,56.5605469 C26.1640559,55.9257781 25.0800823,55.0908255 24.2402344,54.0556641 C23.4003864,52.9716743 22.8046893,51.7558661 22.453125,50.4082031 C22.1015607,49.0605401 21.9257812,47.6689525 21.9257812,46.2333984 Z M26.6572266,46.2333984 C26.6572266,47.7959063 26.9111303,49.1728456 27.4189453,50.3642578 C27.9267604,51.55567 28.7226508,52.4492158 29.8066406,53.0449219 C30.5097691,53.4257832 31.3740183,53.6162109 32.3994141,53.6162109 C33.3955128,53.6162109 34.2524378,53.4209004 34.9702148,53.0302734 C35.6879919,52.6396465 36.283689,52.1147494 36.7573242,51.4555664 C37.2309594,50.7963834 37.5776356,50.0151412 37.7973633,49.1118164 C38.0170909,48.2084916 38.1269531,47.2490285 38.1269531,46.2333984 C38.1269531,45.2177684 38.0170909,44.2631881 37.7973633,43.3696289 C37.5776356,42.4760698 37.2309594,41.6948276 36.7573242,41.0258789 C36.283689,40.3569302 35.6879919,39.8320332 34.9702148,39.4511719 C34.2524378,39.0703106 33.3955128,38.8798828 32.3994141,38.8798828 C31.4033153,38.8798828 30.5439489,39.0703106 29.8212891,39.4511719 C29.0986292,39.8320332 28.5004906,40.3569302 28.0268555,41.0258789 C27.5532203,41.6948276 27.2065441,42.4736284 26.9868164,43.3623047 C26.7670887,44.250981 26.6572266,45.2080027 26.6572266,46.2333984 Z M52.0576172,57 L52.0576172,35.3642578 L56.2617188,35.3642578 L61.8720703,45.3251953 C62.0283211,45.6083999 62.1625971,45.8061518 62.2749023,45.918457 C62.3872076,46.0307623 62.5214836,46.0869141 62.6777344,46.0869141 C62.8339852,46.0869141 62.9682612,46.0307623 63.0805664,45.918457 C63.1928717,45.8061518 63.3320304,45.6083999 63.4980469,45.3251953 L69.0351562,35.3642578 L73.0927734,35.3642578 L73.0927734,57 L68.6835938,57 L68.6835938,43.8017578 L66.3984375,47.7275391 C65.753903,48.8701229 65.1240265,49.6367168 64.5087891,50.0273438 C63.8935516,50.4179707 63.2343785,50.6132812 62.53125,50.6132812 C61.8085901,50.6132812 61.1469757,50.4082052 60.5463867,49.9980469 C59.9457978,49.5878886 59.3378937,48.8212947 58.7226562,47.6982422 L56.5253906,43.8310547 L56.5253906,57 L52.0576172,57 Z M75.3779297,56.4580078 L80.5927734,39.2460938 C80.7880869,38.5624966 81.0322251,37.9545925 81.3251953,37.4223633 C81.6181655,36.8901341 81.97949,36.4458026 82.4091797,36.0893555 C82.8388693,35.7329084 83.3637664,35.4594736 83.9838867,35.269043 C84.604007,35.0786123 85.3339802,34.9833984 86.1738281,34.9833984 C86.9941447,34.9833984 87.6948213,35.0737296 88.2758789,35.2543945 C88.8569365,35.4350595 89.3476542,35.6987287 89.7480469,36.0454102 C90.1484395,36.3920916 90.4829088,36.816892 90.7514648,37.3198242 C91.0200209,37.8227564 91.2519521,38.3915984 91.4472656,39.0263672 L96.7060547,56.4580078 L92.2089844,57.4541016 L90.2460938,50.8476562 L81.7353516,50.8476562 L79.7578125,57.4541016 L75.3779297,56.4580078 Z M82.7753906,47.0390625 L89.1474609,47.0390625 L87.0966797,39.8027344 C86.9794916,39.4023417 86.8305673,39.1386725 86.6499023,39.0117188 C86.4692374,38.884765 86.2617199,38.8212891 86.0273438,38.8212891 C85.7636706,38.8212891 85.5463876,38.8920891 85.3754883,39.0336914 C85.204589,39.1752937 85.0605475,39.4316388 84.9433594,39.8027344 L82.7753906,47.0390625 Z M82.8925781,32.1269531 L87.7851562,26.9121094 L90.6123047,29.578125 L85.1777344,34.1044922 L82.8925781,32.1269531 Z M97.8925781,55.8867188 L99.1523438,52.078125 C101.730482,53.1132864 104.079091,53.6357421 106.198242,53.6455078 C107.819344,53.6455078 109.000973,53.3940455 109.743164,52.8911133 C110.485355,52.3881811 110.856445,51.7070355 110.856445,50.8476562 C110.856445,50.3691382 110.746583,49.9638688 110.526855,49.6318359 C110.307128,49.299803 109.997072,49.0239269 109.59668,48.8041992 C109.196287,48.5844716 108.710452,48.4013679 108.13916,48.2548828 C107.567868,48.1083977 106.940433,47.9716803 106.256836,47.8447266 C105.358394,47.6884758 104.464848,47.4858411 103.576172,47.2368164 C102.687496,46.9877917 101.898929,46.6337914 101.210449,46.1748047 C100.521969,45.715818 99.9628928,45.1250036 99.5332031,44.4023438 C99.1035135,43.6796839 98.8886719,42.7666071 98.8886719,41.6630859 C98.8886719,40.7060499 99.0473617,39.8222697 99.3647461,39.0117188 C99.6821305,38.2011678 100.194821,37.4956085 100.902832,36.8950195 C101.610843,36.2944306 102.536127,35.8256853 103.678711,35.4887695 C104.821295,35.1518538 106.203117,34.9833984 107.824219,34.9833984 C109.259773,34.9833984 110.612298,35.1323227 111.881836,35.4301758 C113.151374,35.7280288 114.279292,36.0771464 115.265625,36.4775391 L114.152344,40.1396484 C112.951166,39.7197245 111.811041,39.3950207 110.731934,39.1655273 C109.652827,38.936034 108.600591,38.8212891 107.575195,38.8212891 C106.198235,38.8212891 105.185062,39.0263651 104.535645,39.4365234 C103.886227,39.8466817 103.561523,40.4423789 103.561523,41.2236328 C103.561523,42.0634808 103.937496,42.6616193 104.689453,43.0180664 C105.44141,43.3745135 106.486321,43.6748035 107.824219,43.9189453 C108.742192,44.0947274 109.660152,44.309569 110.578125,44.5634766 C111.496098,44.8173841 112.326168,45.1835914 113.068359,45.6621094 C113.810551,46.1406274 114.411131,46.7656211 114.870117,47.5371094 C115.329104,48.3085976 115.558594,49.3046814 115.558594,50.5253906 C115.558594,51.5898491 115.353518,52.5493121 114.943359,53.4038086 C114.533201,54.2583051 113.932621,54.9907196 113.141602,55.6010742 C112.350582,56.2114288 111.376471,56.6826155 110.219238,57.0146484 C109.062006,57.3466813 107.721687,57.5126953 106.198242,57.5126953 C105.280269,57.5126953 104.401371,57.4565435 103.561523,57.3442383 C102.721675,57.231933 101.947757,57.097657 101.239746,56.9414062 C100.531735,56.7851555 99.8920927,56.6118174 99.3208008,56.4213867 C98.7495089,56.2309561 98.2734394,56.0527352 97.8925781,55.8867188 Z M122.619141,35.9648438 L126.999023,35.0126953 L132.257812,52.5615234 C132.394532,53.0205101 132.538573,53.3256828 132.689941,53.4770508 C132.841309,53.6284187 133.048827,53.7041016 133.3125,53.7041016 C133.576173,53.7041016 133.781249,53.6284187 133.927734,53.4770508 C134.074219,53.3256828 134.21582,53.0205101 134.352539,52.5615234 L139.699219,35.0126953 L143.961914,35.9648438 L138.703125,53.484375 C138.527343,54.0605498 138.29297,54.5952124 138,55.0883789 C137.70703,55.5815454 137.345705,56.0087873 136.916016,56.3701172 C136.486326,56.7314471 135.971194,57.012206 135.370605,57.2124023 C134.770017,57.4125987 134.083988,57.5126953 133.3125,57.5126953 C131.671867,57.5126953 130.44141,57.1562536 129.621094,56.4433594 C128.800777,55.7304652 128.209963,54.7539125 127.848633,53.5136719 L122.619141,35.9648438 Z M142.526367,56.4580078 L147.741211,39.2460938 C147.936524,38.5624966 148.180663,37.9545925 148.473633,37.4223633 C148.766603,36.8901341 149.127928,36.4458026 149.557617,36.0893555 C149.987307,35.7329084 150.512204,35.4594736 151.132324,35.269043 C151.752445,35.0786123 152.482418,34.9833984 153.322266,34.9833984 C154.142582,34.9833984 154.843259,35.0737296 155.424316,35.2543945 C156.005374,35.4350595 156.496092,35.6987287 156.896484,36.0454102 C157.296877,36.3920916 157.631346,36.816892 157.899902,37.3198242 C158.168458,37.8227564 158.40039,38.3915984 158.595703,39.0263672 L163.854492,56.4580078 L159.357422,57.4541016 L157.394531,50.8476562 L148.883789,50.8476562 L146.90625,57.4541016 L142.526367,56.4580078 Z M149.923828,47.0390625 L156.295898,47.0390625 L154.245117,39.8027344 C154.127929,39.4023417 153.979005,39.1386725 153.79834,39.0117188 C153.617675,38.884765 153.410157,38.8212891 153.175781,38.8212891 C152.912108,38.8212891 152.694825,38.8920891 152.523926,39.0336914 C152.353026,39.1752937 152.208985,39.4316388 152.091797,39.8027344 L149.923828,47.0390625 Z M166.271484,57 L166.271484,35.3642578 L170.739258,35.3642578 L170.739258,53.1914062 L182.0625,53.1914062 L182.0625,57 L166.271484,57 Z M184.713867,57 L184.713867,35.3642578 L189.28418,35.3642578 L189.28418,57 L184.713867,57 Z M192.550781,46.2333984 C192.550781,44.7978444 192.746092,43.4038154 193.136719,42.0512695 C193.527346,40.6987237 194.147457,39.4975638 194.99707,38.4477539 C195.846684,37.397944 196.930657,36.5581086 198.249023,35.9282227 C199.567389,35.2983367 201.15917,34.9833984 203.024414,34.9833984 C204.967783,34.9833984 206.603509,35.2983367 207.931641,35.9282227 C209.259772,36.5581086 210.33398,37.397944 211.154297,38.4477539 C211.974613,39.4975638 212.567869,40.6962823 212.934082,42.0439453 C213.300295,43.3916083 213.483398,44.7880787 213.483398,46.2333984 C213.483398,47.6689525 213.288088,49.0678643 212.897461,50.4301758 C212.506834,51.7924873 211.886723,52.9985299 211.037109,54.0483398 C210.187496,55.0981498 209.103522,55.9379851 207.785156,56.5678711 C206.46679,57.1977571 204.879892,57.5126953 203.024414,57.5126953 C201.081045,57.5126953 199.445319,57.1953157 198.117188,56.5605469 C196.789056,55.9257781 195.705082,55.0908255 194.865234,54.0556641 C194.025386,52.9716743 193.429689,51.7558661 193.078125,50.4082031 C192.726561,49.0605401 192.550781,47.6689525 192.550781,46.2333984 Z M197.282227,46.2333984 C197.282227,47.7959063 197.53613,49.1728456 198.043945,50.3642578 C198.55176,51.55567 199.347651,52.4492158 200.431641,53.0449219 C201.134769,53.4257832 201.999018,53.6162109 203.024414,53.6162109 C204.020513,53.6162109 204.877438,53.4209004 205.595215,53.0302734 C206.312992,52.6396465 206.908689,52.1147494 207.382324,51.4555664 C207.855959,50.7963834 208.202636,50.0151412 208.422363,49.1118164 C208.642091,48.2084916 208.751953,47.2490285 208.751953,46.2333984 C208.751953,45.2177684 208.642091,44.2631881 208.422363,43.3696289 C208.202636,42.4760698 207.855959,41.6948276 207.382324,41.0258789 C206.908689,40.3569302 206.312992,39.8320332 205.595215,39.4511719 C204.877438,39.0703106 204.020513,38.8798828 203.024414,38.8798828 C202.028315,38.8798828 201.168949,39.0703106 200.446289,39.4511719 C199.723629,39.8320332 199.125491,40.3569302 198.651855,41.0258789 C198.17822,41.6948276 197.831544,42.4736284 197.611816,43.3623047 C197.392089,44.250981 197.282227,45.2080027 197.282227,46.2333984 Z M215.080078,55.8867188 L216.339844,52.078125 C218.917982,53.1132864 221.266591,53.6357421 223.385742,53.6455078 C225.006844,53.6455078 226.188473,53.3940455 226.930664,52.8911133 C227.672855,52.3881811 228.043945,51.7070355 228.043945,50.8476562 C228.043945,50.3691382 227.934083,49.9638688 227.714355,49.6318359 C227.494628,49.299803 227.184572,49.0239269 226.78418,48.8041992 C226.383787,48.5844716 225.897952,48.4013679 225.32666,48.2548828 C224.755368,48.1083977 224.127933,47.9716803 223.444336,47.8447266 C222.545894,47.6884758 221.652348,47.4858411 220.763672,47.2368164 C219.874996,46.9877917 219.086429,46.6337914 218.397949,46.1748047 C217.709469,45.715818 217.150393,45.1250036 216.720703,44.4023438 C216.291013,43.6796839 216.076172,42.7666071 216.076172,41.6630859 C216.076172,40.7060499 216.234862,39.8222697 216.552246,39.0117188 C216.86963,38.2011678 217.382321,37.4956085 218.090332,36.8950195 C218.798343,36.2944306 219.723627,35.8256853 220.866211,35.4887695 C222.008795,35.1518538 223.390617,34.9833984 225.011719,34.9833984 C226.447273,34.9833984 227.799798,35.1323227 229.069336,35.4301758 C230.338874,35.7280288 231.466792,36.0771464 232.453125,36.4775391 L231.339844,40.1396484 C230.138666,39.7197245 228.998541,39.3950207 227.919434,39.1655273 C226.840327,38.936034 225.788091,38.8212891 224.762695,38.8212891 C223.385735,38.8212891 222.372562,39.0263651 221.723145,39.4365234 C221.073727,39.8466817 220.749023,40.4423789 220.749023,41.2236328 C220.749023,42.0634808 221.124996,42.6616193 221.876953,43.0180664 C222.62891,43.3745135 223.673821,43.6748035 225.011719,43.9189453 C225.929692,44.0947274 226.847652,44.309569 227.765625,44.5634766 C228.683598,44.8173841 229.513668,45.1835914 230.255859,45.6621094 C230.998051,46.1406274 231.598631,46.7656211 232.057617,47.5371094 C232.516604,48.3085976 232.746094,49.3046814 232.746094,50.5253906 C232.746094,51.5898491 232.541018,52.5493121 232.130859,53.4038086 C231.720701,54.2583051 231.120121,54.9907196 230.329102,55.6010742 C229.538082,56.2114288 228.563971,56.6826155 227.406738,57.0146484 C226.249506,57.3466813 224.909187,57.5126953 223.385742,57.5126953 C222.467769,57.5126953 221.588871,57.4565435 220.749023,57.3442383 C219.909175,57.231933 219.135257,57.097657 218.427246,56.9414062 C217.719235,56.7851555 217.079593,56.6118174 216.508301,56.4213867 C215.937009,56.2309561 215.460939,56.0527352 215.080078,55.8867188 Z M234.958008,46.2333984 C234.958008,44.7978444 235.153318,43.4038154 235.543945,42.0512695 C235.934572,40.6987237 236.554683,39.4975638 237.404297,38.4477539 C238.25391,37.397944 239.337884,36.5581086 240.65625,35.9282227 C241.974616,35.2983367 243.566397,34.9833984 245.431641,34.9833984 C247.37501,34.9833984 249.010736,35.2983367 250.338867,35.9282227 C251.666999,36.5581086 252.741207,37.397944 253.561523,38.4477539 C254.38184,39.4975638 254.975096,40.6962823 255.341309,42.0439453 C255.707521,43.3916083 255.890625,44.7880787 255.890625,46.2333984 C255.890625,47.6689525 255.695314,49.0678643 255.304688,50.4301758 C254.914061,51.7924873 254.29395,52.9985299 253.444336,54.0483398 C252.594722,55.0981498 251.510749,55.9379851 250.192383,56.5678711 C248.874017,57.1977571 247.287119,57.5126953 245.431641,57.5126953 C243.488272,57.5126953 241.852546,57.1953157 240.524414,56.5605469 C239.196282,55.9257781 238.112309,55.0908255 237.272461,54.0556641 C236.432613,52.9716743 235.836916,51.7558661 235.485352,50.4082031 C235.133787,49.0605401 234.958008,47.6689525 234.958008,46.2333984 Z M239.689453,46.2333984 C239.689453,47.7959063 239.943357,49.1728456 240.451172,50.3642578 C240.958987,51.55567 241.754877,52.4492158 242.838867,53.0449219 C243.541996,53.4257832 244.406245,53.6162109 245.431641,53.6162109 C246.427739,53.6162109 247.284664,53.4209004 248.002441,53.0302734 C248.720218,52.6396465 249.315916,52.1147494 249.789551,51.4555664 C250.263186,50.7963834 250.609862,50.0151412 250.82959,49.1118164 C251.049318,48.2084916 251.15918,47.2490285 251.15918,46.2333984 C251.15918,45.2177684 251.049318,44.2631881 250.82959,43.3696289 C250.609862,42.4760698 250.263186,41.6948276 249.789551,41.0258789 C249.315916,40.3569302 248.720218,39.8320332 248.002441,39.4511719 C247.284664,39.0703106 246.427739,38.8798828 245.431641,38.8798828 C244.435542,38.8798828 243.576175,39.0703106 242.853516,39.4511719 C242.130856,39.8320332 241.532717,40.3569302 241.059082,41.0258789 C240.585447,41.6948276 240.238771,42.4736284 240.019043,43.3623047 C239.799315,44.250981 239.689453,45.2080027 239.689453,46.2333984 Z M5.06542969,90 L5.06542969,68.3642578 L14.015625,68.3642578 C15.7148522,68.3642578 17.228509,68.6254857 18.5566406,69.1479492 C19.8847723,69.6704128 21.0029251,70.4003859 21.9111328,71.3378906 C22.8193405,72.2753953 23.5151343,73.4057551 23.9985352,74.7290039 C24.481936,76.0522527 24.7236328,77.5146404 24.7236328,79.1162109 C24.7236328,80.6982501 24.5087912,82.1533137 24.0791016,83.4814453 C23.6494119,84.809577 22.9926802,85.9570264 22.1088867,86.9238281 C21.2250932,87.8906298 20.1093817,88.6450168 18.7617188,89.1870117 C17.4140558,89.7290066 15.8320403,90 14.015625,90 L5.06542969,90 Z M9.57714844,86.1914062 L13.7958984,86.1914062 C15.7783302,86.1914062 17.3041939,85.6469781 18.3735352,84.5581055 C19.4428764,83.4692328 19.9775391,81.7041138 19.9775391,79.2626953 C19.9775391,76.8017455 19.4379937,75.0048885 18.3588867,73.8720703 C17.2797798,72.7392521 15.7587989,72.1728516 13.7958984,72.1728516 L9.57714844,72.1728516 L9.57714844,86.1914062 Z M27.9169922,90 L27.9169922,68.3642578 L43.4589844,68.3642578 L43.4589844,72.1728516 L32.3554688,72.1728516 L32.3554688,76.8017578 L40.9394531,76.8017578 L40.9394531,80.6396484 L32.3554688,80.6396484 L32.3554688,86.1914062 L43.7080078,86.1914062 L43.7080078,90 L27.9169922,90 Z M51.2519531,72.1728516 L51.2519531,68.3642578 L68.6542969,68.3642578 L68.6542969,72.1728516 L62.1943359,72.1728516 L62.1943359,90 L57.6972656,90 L57.6972656,72.1728516 L51.2519531,72.1728516 Z M71.0712891,81.0351562 L71.0712891,68.3642578 L75.5683594,68.3642578 L75.5683594,80.4052734 C75.5683594,81.3818408 75.6245112,82.2607383 75.7368164,83.0419922 C75.8491217,83.8232461 76.068846,84.4824192 76.3959961,85.0195312 C76.7231462,85.5566433 77.1772432,85.9716782 77.7583008,86.2646484 C78.3393584,86.5576187 79.1132764,86.7041016 80.0800781,86.7041016 C81.0175828,86.7041016 81.7768526,86.5576187 82.3579102,86.2646484 C82.9389677,85.9716782 83.3930648,85.5615261 83.7202148,85.0341797 C84.0473649,84.5068333 84.2670893,83.8623085 84.3793945,83.1005859 C84.4916998,82.3388634 84.5478516,81.4892625 84.5478516,80.5517578 L84.5478516,68.3642578 L89.0742188,68.3642578 L89.0742188,80.6396484 C89.0742188,82.0752025 88.9497083,83.3984314 88.7006836,84.609375 C88.4516589,85.8203186 87.9926791,86.8603472 87.3237305,87.7294922 C86.6547818,88.5986372 85.7343809,89.2797827 84.5625,89.7729492 C83.3906191,90.2661157 81.8964935,90.5126953 80.0800781,90.5126953 C78.2246001,90.5126953 76.708502,90.2929709 75.5317383,89.8535156 C74.3549746,89.4140603 73.437015,88.7841838 72.777832,87.9638672 C72.118649,87.1435506 71.6694348,86.1474668 71.4301758,84.9755859 C71.1909168,83.8037051 71.0712891,82.4902417 71.0712891,81.0351562 Z M97.0429688,68.9648438 L101.422852,68.0126953 L106.681641,85.5615234 C106.81836,86.0205101 106.962402,86.3256828 107.11377,86.4770508 C107.265137,86.6284187 107.472655,86.7041016 107.736328,86.7041016 C108.000001,86.7041016 108.205077,86.6284187 108.351562,86.4770508 C108.498048,86.3256828 108.639648,86.0205101 108.776367,85.5615234 L114.123047,68.0126953 L118.385742,68.9648438 L113.126953,86.484375 C112.951171,87.0605498 112.716798,87.5952124 112.423828,88.0883789 C112.130858,88.5815454 111.769533,89.0087873 111.339844,89.3701172 C110.910154,89.7314471 110.395023,90.012206 109.794434,90.2124023 C109.193845,90.4125987 108.507816,90.5126953 107.736328,90.5126953 C106.095695,90.5126953 104.865238,90.1562536 104.044922,89.4433594 C103.224605,88.7304652 102.633791,87.7539125 102.272461,86.5136719 L97.0429688,68.9648438 Z M120.802734,90 L120.802734,68.3642578 L125.373047,68.3642578 L125.373047,90 L120.802734,90 Z M129.5625,90 L129.5625,68.3642578 L138.512695,68.3642578 C140.211923,68.3642578 141.725579,68.6254857 143.053711,69.1479492 C144.381843,69.6704128 145.499995,70.4003859 146.408203,71.3378906 C147.316411,72.2753953 148.012205,73.4057551 148.495605,74.7290039 C148.979006,76.0522527 149.220703,77.5146404 149.220703,79.1162109 C149.220703,80.6982501 149.005862,82.1533137 148.576172,83.4814453 C148.146482,84.809577 147.489751,85.9570264 146.605957,86.9238281 C145.722164,87.8906298 144.606452,88.6450168 143.258789,89.1870117 C141.911126,89.7290066 140.329111,90 138.512695,90 L129.5625,90 Z M134.074219,86.1914062 L138.292969,86.1914062 C140.275401,86.1914062 141.801264,85.6469781 142.870605,84.5581055 C143.939947,83.4692328 144.474609,81.7041138 144.474609,79.2626953 C144.474609,76.8017455 143.935064,75.0048885 142.855957,73.8720703 C141.77685,72.7392521 140.255869,72.1728516 138.292969,72.1728516 L134.074219,72.1728516 L134.074219,86.1914062 Z M150.421875,89.4580078 L155.636719,72.2460938 C155.832032,71.5624966 156.07617,70.9545925 156.369141,70.4223633 C156.662111,69.8901341 157.023435,69.4458026 157.453125,69.0893555 C157.882815,68.7329084 158.407712,68.4594736 159.027832,68.269043 C159.647952,68.0786123 160.377925,67.9833984 161.217773,67.9833984 C162.03809,67.9833984 162.738767,68.0737296 163.319824,68.2543945 C163.900882,68.4350595 164.3916,68.6987287 164.791992,69.0454102 C165.192385,69.3920916 165.526854,69.816892 165.79541,70.3198242 C166.063966,70.8227564 166.295897,71.3915984 166.491211,72.0263672 L171.75,89.4580078 L167.25293,90.4541016 L165.290039,83.8476562 L156.779297,83.8476562 L154.801758,90.4541016 L150.421875,89.4580078 Z M157.819336,80.0390625 L164.191406,80.0390625 L162.140625,72.8027344 C162.023437,72.4023417 161.874513,72.1386725 161.693848,72.0117188 C161.513183,71.884765 161.305665,71.8212891 161.071289,71.8212891 C160.807616,71.8212891 160.590333,71.8920891 160.419434,72.0336914 C160.248534,72.1752937 160.104493,72.4316388 159.987305,72.8027344 L157.819336,80.0390625 Z" id="path-1"></path>
        <filter x="-2.8%" y="-5.6%" width="105.6%" height="115.8%" filterUnits="objectBoundingBox" id="filter-2">
            <feOffset dx="0" dy="2" in="SourceAlpha" result="shadowOffsetOuter1"></feOffset>
            <feGaussianBlur stdDeviation="2" in="shadowOffsetOuter1" result="shadowBlurOuter1"></feGaussianBlur>
            <feColorMatrix values="0 0 0 0 0   0 0 0 0 0   0 0 0 0 0  0 0 0 0.5 0" type="matrix" in="shadowBlurOuter1"></feColorMatrix>
        </filter>
    </defs>
    <g id="Page-1" stroke="none" stroke-width="1" fill="none" fill-rule="evenodd">
        <g id="CUIDAMOS-LO-MÁS-VALI">
            <use fill="black" fill-opacity="1" filter="url(#filter-2)" xlink:href="#path-1"></use>
            <use fill="#FFFFFF" fill-rule="evenodd" xlink:href="#path-1"></use>
        </g>
    </g>
</svg>