<?xml version="1.0" encoding="UTF-8"?>
<svg width="146px" height="42px" viewBox="0 0 146 42" version="1.1" xmlns="http://www.w3.org/2000/svg" xmlns:xlink="http://www.w3.org/1999/xlink">
    <!-- Generator: Sketch 52.2 (67145) - http://www.bohemiancoding.com/sketch -->
    <title>Slice</title>
    <desc>Created with Sketch.</desc>
    <defs>
        <path d="M0.35925,5.50525 L2.6951875,4.9974375 L5.499875,14.3568125 C5.57279163,14.6016041 5.64961462,14.7643646 5.73034375,14.8450937 C5.81107288,14.9258229 5.92175,14.9661875 6.062375,14.9661875 C6.203,14.9661875 6.312375,14.9258229 6.3905,14.8450937 C6.468625,14.7643646 6.54414587,14.6016041 6.6170625,14.3568125 L9.468625,4.9974375 L11.7420625,5.50525 L8.937375,14.849 C8.843625,15.1562916 8.718625,15.4414479 8.562375,15.7044687 C8.406125,15.9674896 8.21341663,16.1953541 7.98425,16.3880625 C7.75508337,16.5807709 7.48034375,16.7305104 7.16003125,16.8372812 C6.83971875,16.9440521 6.47383337,16.9974375 6.062375,16.9974375 C5.187375,16.9974375 4.531125,16.8073334 4.093625,16.427125 C3.656125,16.0469166 3.34102087,15.5260834 3.1483125,14.864625 L0.35925,5.50525 Z M12.999875,16.724 L12.999875,5.1849375 L21.2889375,5.1849375 L21.2889375,7.2161875 L15.3670625,7.2161875 L15.3670625,9.6849375 L19.9451875,9.6849375 L19.9451875,11.7318125 L15.3670625,11.7318125 L15.3670625,14.69275 L21.42175,14.69275 L21.42175,16.724 L12.999875,16.724 Z M23.10925,16.724 L23.10925,5.1849375 L27.5155,5.1849375 C28.0675834,5.1849375 28.5858125,5.24092712 29.0701875,5.35290625 C29.5545625,5.46488538 29.9764375,5.65238538 30.3358125,5.91540625 C30.6951875,6.17842712 30.9751354,6.520875 31.1756563,6.94275 C31.3761771,7.364625 31.4764375,7.88285413 31.4764375,8.4974375 C31.4764375,8.91410413 31.4100313,9.30342712 31.2772188,9.66540625 C31.1444063,10.0273854 30.9660209,10.3529062 30.7420625,10.6419687 C30.5181041,10.9310312 30.2576875,11.177125 29.9608125,11.38025 C29.6639375,11.583375 29.3540416,11.7370209 29.031125,11.8411875 C29.2134166,11.9245209 29.3761771,12.0365 29.5194063,12.177125 C29.6626354,12.31775 29.8149791,12.4844166 29.9764375,12.677125 L32.5233125,15.6380625 L30.6795625,16.9661875 L27.828,13.6224375 C27.6352916,13.3984791 27.4647188,13.2109791 27.3162813,13.0599375 C27.1678438,12.9088959 27.0298229,12.7891041 26.9022188,12.7005625 C26.7746146,12.6120209 26.6470104,12.5508229 26.5194063,12.5169687 C26.3918021,12.4831146 26.2472709,12.4661875 26.0858125,12.4661875 L25.5155,12.4661875 L25.5155,16.724 L23.10925,16.724 Z M25.5155,10.4661875 L27.062375,10.4661875 C27.67175,10.4661875 28.1548229,10.3281666 28.5115938,10.052125 C28.8683646,9.77608337 29.04675,9.364625 29.04675,8.81775 C29.04675,8.474 28.9985729,8.19405212 28.9022188,7.97790625 C28.8058646,7.76176038 28.6730521,7.59248962 28.5037813,7.47009375 C28.3345104,7.34769788 28.1274791,7.26436462 27.8826875,7.22009375 C27.6378959,7.17582288 27.3644584,7.1536875 27.062375,7.1536875 L25.5155,7.1536875 L25.5155,10.4661875 Z M36.9764375,16.724 L36.9764375,5.1849375 L39.218625,5.1849375 L42.2108125,10.4974375 C42.2941459,10.6484791 42.3657604,10.7539479 42.4256563,10.8138437 C42.4855521,10.8737396 42.5571666,10.9036875 42.6405,10.9036875 C42.7238334,10.9036875 42.7954479,10.8737396 42.8553438,10.8138437 C42.9152396,10.7539479 42.9894584,10.6484791 43.078,10.4974375 L46.031125,5.1849375 L48.1951875,5.1849375 L48.1951875,16.724 L45.843625,16.724 L45.843625,9.6849375 L44.624875,11.7786875 C44.281125,12.3880625 43.9451875,12.7969166 43.6170625,13.00525 C43.2889375,13.2135834 42.937375,13.31775 42.562375,13.31775 C42.1769584,13.31775 41.8240938,13.208375 41.5037813,12.989625 C41.1834688,12.770875 40.85925,12.3620209 40.531125,11.7630625 L39.35925,9.7005625 L39.35925,16.724 L36.9764375,16.724 Z M49.4139375,16.4349375 L52.1951875,7.25525 C52.2993541,6.89066663 52.4295625,6.56644788 52.5858125,6.28259375 C52.7420625,5.99873962 52.9347709,5.76176038 53.1639375,5.57165625 C53.3931041,5.38155212 53.6730521,5.23571875 54.0037813,5.13415625 C54.3345104,5.03259375 54.7238334,4.9818125 55.17175,4.9818125 C55.60925,4.9818125 55.9829479,5.02998962 56.2928438,5.12634375 C56.6027396,5.22269788 56.8644584,5.36332288 57.078,5.54821875 C57.2915416,5.73311462 57.4699271,5.95967712 57.6131563,6.22790625 C57.7563854,6.49613538 57.8800834,6.79952087 57.98425,7.1380625 L60.7889375,16.4349375 L58.3905,16.9661875 L57.343625,13.44275 L52.8045625,13.44275 L51.749875,16.9661875 L49.4139375,16.4349375 Z M53.35925,11.4115 L56.7576875,11.4115 L55.6639375,7.552125 C55.6014375,7.33858337 55.5220104,7.19795837 55.4256563,7.13025 C55.3293021,7.06254163 55.218625,7.0286875 55.093625,7.0286875 C54.953,7.0286875 54.8371146,7.06644788 54.7459688,7.14196875 C54.6548229,7.21748962 54.578,7.35420837 54.5155,7.552125 L53.35925,11.4115 Z M53.42175,3.458375 L56.031125,0.677125 L57.5389375,2.099 L54.6405,4.5130625 L53.42175,3.458375 Z M61.42175,16.13025 L62.093625,14.099 C63.468625,14.6510834 64.7212291,14.9297291 65.8514375,14.9349375 C66.7160209,14.9349375 67.3462291,14.8008229 67.7420625,14.5325937 C68.1378959,14.2643646 68.3358125,13.9010834 68.3358125,13.44275 C68.3358125,13.1875416 68.2772188,12.9713959 68.1600313,12.7943125 C68.0428438,12.6172291 67.8774791,12.4700937 67.6639375,12.3529062 C67.4503959,12.2357187 67.1912813,12.1380625 66.8865938,12.0599375 C66.5819063,11.9818125 66.2472709,11.9088959 65.8826875,11.8411875 C65.4035209,11.7578541 64.9269584,11.6497812 64.453,11.5169687 C63.9790416,11.3841562 63.5584688,11.1953541 63.1912813,10.9505625 C62.8240938,10.7057709 62.5259166,10.3906666 62.29675,10.00525 C62.0675834,9.61983337 61.953,9.13285413 61.953,8.5443125 C61.953,8.03389587 62.0376354,7.56254163 62.2069063,7.13025 C62.3761771,6.69795837 62.6496146,6.32165625 63.0272188,6.00134375 C63.4048229,5.68103125 63.8983125,5.43103125 64.5076875,5.25134375 C65.1170625,5.07165625 65.8540416,4.9818125 66.718625,4.9818125 C67.48425,4.9818125 68.2056041,5.06123962 68.8826875,5.22009375 C69.5597709,5.37894788 70.1613334,5.56514587 70.687375,5.7786875 L70.093625,7.7318125 C69.453,7.50785413 68.8449271,7.33467712 68.2694063,7.21228125 C67.6938854,7.08988538 67.1326875,7.0286875 66.5858125,7.0286875 C65.8514375,7.0286875 65.3110729,7.1380625 64.9647188,7.3568125 C64.6183646,7.5755625 64.4451875,7.89327087 64.4451875,8.3099375 C64.4451875,8.75785413 64.6457084,9.07686462 65.04675,9.26696875 C65.4477916,9.45707288 66.0050834,9.61722913 66.718625,9.7474375 C67.2082084,9.8411875 67.6977916,9.95577087 68.187375,10.0911875 C68.6769584,10.2266041 69.1196666,10.4219166 69.5155,10.677125 C69.9113334,10.9323334 70.2316459,11.2656666 70.4764375,11.677125 C70.7212291,12.0885834 70.843625,12.6198334 70.843625,13.270875 C70.843625,13.8385834 70.73425,14.3503021 70.5155,14.8060312 C70.29675,15.2617604 69.9764375,15.6523854 69.5545625,15.9779062 C69.1326875,16.3034271 68.6131563,16.5547291 67.9959688,16.7318125 C67.3787813,16.9088959 66.6639375,16.9974375 65.8514375,16.9974375 C65.3618541,16.9974375 64.8931041,16.9674896 64.4451875,16.9075937 C63.9972709,16.8476979 63.5845104,16.7760834 63.2069063,16.69275 C62.8293021,16.6094166 62.4881563,16.5169687 62.1834688,16.4154062 C61.8787813,16.3138437 61.624875,16.2187916 61.42175,16.13025 Z" id="path-1"></path>
    </defs>
    <g id="Page-1" stroke="none" stroke-width="1" fill="none" fill-rule="evenodd">
        <g id="Group-2">
            <rect id="Rectangle" fill-opacity="0" fill="#FFFFFF" x="0" y="0" width="146" height="42"></rect>
            <g id="Group" transform="translate(15.000000, 11.000000)">
                <g id="VER_MÃS">
                    <use fill="#000000" xlink:href="#path-1"></use>
                    <use fill="#FFFFFF" xlink:href="#path-1"></use>
                </g>
                <polyline id="Path" stroke="#FFFFFF" stroke-width="2.5" points="107.134 0.286 116.622 9.663 107.134 19.042"></polyline>
                <polyline id="Rectangle_2_copy" stroke="#FFFFFF" stroke-width="2.5" points="98.384 0.286 107.872 9.663 98.384 19.042"></polyline>
            </g>
        </g>
    </g>
</svg>